<?xml version="1.0" encoding="UTF-8" standalone="no"?>
<svg width="34px" height="27px" viewBox="0 0 34 27" version="1.1" xmlns="http://www.w3.org/2000/svg" xmlns:xlink="http://www.w3.org/1999/xlink">
    <!-- Generator: Sketch 3.8.3 (29802) - http://www.bohemiancoding.com/sketch -->
    <title>Group</title>
    <desc>Created with Sketch.</desc>
    <defs></defs>
    <g id="Page-1" stroke="none" stroke-width="1" fill="none" fill-rule="evenodd">
        <g id="Add-Fonts---Web-Service---Grouped" transform="translate(-213.000000, -774.000000)">
            <g id="Section-Block" transform="translate(183.000000, 188.000000)">
                <g id="Fonts-Variations" transform="translate(1.000000, 549.000000)">
                    <g id="Section-Title">
                        <g id="Arrows" transform="translate(29.000000, 37.000000)">
                            <g id="Group">
                                <path d="M32.2361975,14.765625 L23.5061728,14.765625 L23.5061728,11.2265156 C23.5061728,10.1730938 22.9462222,9.88959375 22.1688395,10.5966563 L14.9818272,17.1694688 C14.2044444,17.8765313 14.2241728,19.0337344 15.0011358,19.7407969 L22.1596049,26.3131875 C22.9374074,27.0206719 23.5061728,26.7371719 23.5061728,25.6833281 L23.5061728,21.9375 L32.2361975,21.9375 C33.2847407,21.9375 34,21.1852969 34,20.1310313 L34,16.7788125 C34,15.7253906 33.2847407,14.765625 32.2361975,14.765625 L32.2361975,14.765625 Z" id="Shape" fill="#76C6EC"></path>
                                <path d="M19.0219506,7.11154687 L11.8513086,0.538734375 C11.0743457,-0.168328125 10.4938272,0.115171875 10.4938272,1.16901562 L10.4938272,5.0625 L1.78017284,5.0625 C0.73162963,5.0625 0,5.66746875 0,6.72173437 L0,10.074375 C0,11.1269531 0.73162963,12.234375 1.78017284,12.234375 L10.4938272,12.234375 L10.4938272,15.6258281 C10.4938272,16.67925 11.0617531,16.96275 11.8391358,16.2552656 L19.0299259,9.682875 C19.8073086,8.9758125 19.7993333,7.81860937 19.0219506,7.11154687 L19.0219506,7.11154687 Z" id="Shape" fill="#484848"></path>
                            </g>
                        </g>
                    </g>
                </g>
            </g>
        </g>
    </g>
</svg>